<?xml version="1.0" encoding="UTF-8"?>
<svg width="15px" height="20px" viewBox="0 0 15 20" version="1.1" xmlns="http://www.w3.org/2000/svg" xmlns:xlink="http://www.w3.org/1999/xlink">
    <!-- Generator: Sketch 46.2 (44496) - http://www.bohemiancoding.com/sketch -->
    <title>svg/delete-photo</title>
    <desc>Created with Sketch.</desc>
    <defs></defs>
    <g id="Page-1" stroke="none" stroke-width="1" fill="none" fill-rule="evenodd">
        <g id="Desktop-HD" transform="translate(-858.000000, -260.000000)" fill="#C0C0C0">
            <g id="iten" transform="translate(50.000000, 240.000000)">
                <g id="svg/delete-photo" transform="translate(808.000000, 20.000000)">
                    <g id="delete-photo">
                        <path d="M1,19.5509069 C1,19.798941 1.2125404,20 1.47473844,20 L13.5252616,20 C13.7874596,20 14,19.798941 14,19.5509069 L14,5 L1,5 L1,19.5509069 L1,19.5509069 Z M10.1704037,7.47627666 L11.9506729,7.47627666 L11.9506729,17.2671565 L10.1704037,17.2671565 L10.1704037,7.47627666 Z M6.60986543,7.47627666 L8.39013457,7.47627666 L8.39013457,17.2671565 L6.60986543,17.2671565 L6.60986543,7.47627666 Z M3.04932715,7.47627666 L4.82959629,7.47627666 L4.82959629,17.2671565 L3.04932715,17.2671565 L3.04932715,7.47627666 Z" id="Shape" fill-rule="nonzero"></path>
                        <path d="M11.3501976,1.77188932 L11.3501976,0.385566325 C11.3501976,0.172618044 11.1456912,0 10.8934042,0 L4.10659579,0 C3.85430878,0 3.64980236,0.172618044 3.64980236,0.385566325 L3.64980236,1.77188932 L3.64980236,2.01286828 L3.64980236,2.25384723 L0.456793432,2.25384723 C0.204506419,2.25384723 0,2.42646527 0,2.63941355 L0,3.61443368 C0,3.82736268 0.204506419,4 0.456793432,4 L1.24569853,4 L13.7543015,4 L14.5432066,4 C14.7954936,4 15,3.82736268 15,3.61443368 L15,2.63941355 C15,2.42646527 14.7954936,2.25384723 14.5432066,2.25384723 L11.3501976,2.25384723 L11.3501976,2.01286828 L11.3501976,1.77188932 Z M9,2 L5,2 L5,1.77806291 L5,1.44736633 L5,1 L9,1 L9,1.44739279 L9,1.77808937 L9,2 Z" id="Shape" fill-rule="nonzero"></path>
                    </g>
                </g>
            </g>
        </g>
    </g>
</svg>